<svg xmlns="http://www.w3.org/2000/svg" width="860" height="420" viewBox="0 0 860 420" role="img" aria-label="Africa share of global births from 1950 to 2100, with 2026 marked as now and 2067 marked as the annual births peak">
  <rect width="100%" height="100%" fill="var(--paper)" />

  <line x1="110" y1="320" x2="780" y2="320" stroke="var(--rule)" stroke-width="1" />
  <line x1="110" y1="252.5" x2="780" y2="252.5" stroke="var(--rule)" stroke-width="1" stroke-dasharray="4 6" />
  <line x1="110" y1="185" x2="780" y2="185" stroke="var(--rule)" stroke-width="1" stroke-dasharray="4 6" />
  <line x1="110" y1="117.5" x2="780" y2="117.5" stroke="var(--rule)" stroke-width="1" stroke-dasharray="4 6" />
  <line x1="110" y1="50" x2="780" y2="50" stroke="var(--rule)" stroke-width="1" stroke-dasharray="4 6" />

  <line x1="110" y1="50" x2="110" y2="320" stroke="var(--rule)" stroke-width="1" />
  <line x1="333.33" y1="50" x2="333.33" y2="320" stroke="var(--rule)" stroke-width="1" stroke-dasharray="4 6" />
  <line x1="449.47" y1="50" x2="449.47" y2="320" stroke="var(--accent-green)" stroke-width="1.5" stroke-dasharray="4 6" />
  <line x1="632.60" y1="50" x2="632.60" y2="320" stroke="var(--accent-brown)" stroke-width="1.5" stroke-dasharray="4 6" />
  <line x1="780" y1="50" x2="780" y2="320" stroke="var(--rule)" stroke-width="1" />

  <text x="98" y="324" text-anchor="end" font-family="Geist Mono, monospace" font-size="11" fill="var(--dim)">10%</text>
  <text x="98" y="256.5" text-anchor="end" font-family="Geist Mono, monospace" font-size="11" fill="var(--dim)">20%</text>
  <text x="98" y="189" text-anchor="end" font-family="Geist Mono, monospace" font-size="11" fill="var(--dim)">30%</text>
  <text x="98" y="121.5" text-anchor="end" font-family="Geist Mono, monospace" font-size="11" fill="var(--dim)">40%</text>
  <text x="98" y="54" text-anchor="end" font-family="Geist Mono, monospace" font-size="11" fill="var(--dim)">50%</text>

  <text x="110" y="344" text-anchor="middle" font-family="Geist Mono, monospace" font-size="11" fill="var(--dim)">1950</text>
  <text x="333.33" y="344" text-anchor="middle" font-family="Geist Mono, monospace" font-size="11" fill="var(--dim)">2000</text>
  <text x="449.47" y="344" text-anchor="middle" font-family="Geist Mono, monospace" font-size="11" fill="var(--accent-green)">2026</text>
  <text x="632.60" y="344" text-anchor="middle" font-family="Geist Mono, monospace" font-size="11" fill="var(--accent-brown)">2067</text>
  <text x="780" y="344" text-anchor="middle" font-family="Geist Mono, monospace" font-size="11" fill="var(--dim)">2100</text>

  <polyline
    fill="none"
    stroke="var(--accent)"
    stroke-width="3"
    stroke-linejoin="round"
    stroke-linecap="round"
    points="110.00,307.53 114.47,306.23 118.93,308.48 123.40,306.54 127.87,307.16 132.33,306.66 136.80,304.90 141.27,306.48 145.73,303.66 150.20,299.67 154.67,298.00 159.13,294.62 163.60,301.80 168.07,305.52 172.53,301.90 177.00,300.43 181.47,297.83 185.93,295.44 190.40,297.02 194.87,295.09 199.33,294.25 203.80,291.49 208.27,289.00 212.73,286.64 217.20,283.21 221.67,278.88 226.13,276.30 230.60,272.97 235.07,271.35 239.53,270.86 244.00,270.17 248.47,269.50 252.93,269.64 257.40,265.50 261.87,265.39 266.33,264.69 270.80,265.14 275.27,264.70 279.73,262.20 284.20,261.32 288.67,260.52 293.13,253.52 297.60,249.68 302.07,246.43 306.53,244.11 311.00,240.70 315.47,237.60 319.93,234.85 324.40,232.05 328.87,228.84 333.33,227.61 337.80,223.88 342.27,220.77 346.73,217.56 351.20,214.81 355.67,211.28 360.13,209.10 364.60,207.29 369.07,205.50 373.53,203.67 378.00,200.64 382.47,198.17 386.93,198.01 391.40,193.93 395.87,191.44 400.33,187.99 404.80,187.32 409.27,183.48 413.73,177.66 418.20,173.38 422.67,165.17 427.13,160.43 431.60,155.82 436.07,152.14 440.53,149.83 445.00,147.47 449.47,145.21 453.93,143.05 458.40,140.96 462.87,138.98 467.33,137.32 471.80,135.59 476.27,134.06 480.73,132.58 485.20,131.17 489.67,129.91 494.13,128.56 498.60,127.41 503.07,126.00 507.53,124.58 512.00,123.27 516.47,121.90 520.93,120.41 525.40,118.97 529.87,117.43 534.33,115.90 538.80,114.08 543.27,112.16 547.73,110.19 552.20,108.16 556.67,106.10 561.13,103.98 565.60,101.79 570.07,99.86 574.53,97.88 579.00,96.15 583.47,94.55 587.93,93.00 592.40,91.49 596.87,90.22 601.33,89.09 605.80,88.03 610.27,87.23 614.73,86.54 619.20,85.95 623.67,85.35 628.13,84.73 632.60,84.12 637.07,83.54 641.53,82.93 646.00,82.42 650.47,81.85 654.93,81.22 659.40,80.56 663.87,79.93 668.33,79.24 672.80,78.51 677.27,77.76 681.73,76.93 686.20,76.05 690.67,75.24 695.13,74.28 699.60,73.32 704.07,72.37 708.53,71.43 713.00,70.56 717.47,69.74 721.93,68.92 726.40,68.15 730.87,67.52 735.33,66.95 739.80,66.34 744.27,65.90 748.73,65.38 753.20,64.92 757.67,64.56 762.13,64.29 766.60,64.08 771.07,63.78 775.53,63.64 780.00,63.36"
  />

  <circle cx="110" cy="307.53" r="4" fill="var(--accent)" />
  <circle cx="449.47" cy="145.21" r="5" fill="var(--accent-green)" />
  <circle cx="632.60" cy="84.12" r="5" fill="var(--accent-brown)" />
  <circle cx="780" cy="63.36" r="4" fill="var(--accent)" />

  <text x="126" y="302" font-family="Geist Mono, monospace" font-size="11" fill="var(--ink)">1950: 11.85%</text>
  <text x="461" y="138" font-family="Geist Mono, monospace" font-size="11" fill="var(--ink)">2026: 35.89%</text>
  <text x="606" y="69" text-anchor="end" font-family="Geist Mono, monospace" font-size="11" fill="var(--ink)">2067: births peak</text>
  <text x="606" y="84" text-anchor="end" font-family="Geist Mono, monospace" font-size="11" fill="var(--dim)">Share at that point: 44.95%</text>
  <text x="676" y="53" font-family="Geist Mono, monospace" font-size="11" fill="var(--ink)">2100: 48.02%</text>

  <text x="110" y="24" font-family="Geist Mono, monospace" font-size="12" fill="var(--ink)">Africa share of global births</text>
  <text x="110" y="390" font-family="Geist Mono, monospace" font-size="10" fill="var(--dim)">Source: OWID grapher series based on UN World Population Prospects 2024.</text>
  <text x="110" y="404" font-family="Geist Mono, monospace" font-size="10" fill="var(--dim)">The line shows share of world births. The 2067 annotation marks peak annual births, not peak share.</text>
</svg>
